G04 start of page 6 for group -4062 idx -4062 *
G04 Title: (unknown), soldermask *
G04 Creator: pcb 20091103 *
G04 CreationDate: Wed 16 Nov 2011 10:52:43 GMT UTC *
G04 For: jeanmarc *
G04 Format: Gerber/RS-274X *
G04 PCB-Dimensions: 657480 551181 *
G04 PCB-Coordinate-Origin: lower left *
%MOIN*%
%FSLAX25Y25*%
%LNBACKMASK*%
%ADD11C,0.0200*%
%ADD41C,0.1060*%
%ADD42C,0.0801*%
%ADD43C,0.2422*%
%ADD44C,0.1280*%
%ADD45C,0.0960*%
%ADD46R,0.0712X0.0712*%
%ADD47R,0.0594X0.0594*%
%ADD48R,0.0830X0.0830*%
%ADD49R,0.2480X0.2480*%
G54D11*G36*
X596174Y213298D02*Y204198D01*
X605274D01*
Y213298D01*
X596174D01*
G37*
G54D41*X610724Y208748D03*
X620724D03*
X630724D03*
G54D42*X627952Y188976D03*
G54D43*X598425D03*
G54D44*X618977Y324803D03*
Y304803D03*
Y284803D03*
G54D11*G36*
X590246Y341825D02*Y332725D01*
X599346D01*
Y341825D01*
X590246D01*
G37*
G54D43*X598370Y362158D03*
G54D45*X594796Y327275D03*
Y317275D03*
G54D42*X15566Y305213D03*
G54D43*Y275686D03*
G54D42*X627897Y362158D03*
G54D46*X597520Y297181D02*Y296395D01*
X605000Y297181D02*Y296395D01*
X594991Y258277D02*X595777D01*
X594991Y265757D02*X595777D01*
G54D47*X604298Y307181D02*X604692D01*
X597606D02*X598000D01*
X314936Y275189D02*X315330D01*
X308244D02*X308638D01*
G54D48*X608433Y263825D02*Y258325D01*
X626433Y263825D02*Y258325D01*
G54D49*X617433Y239575D02*Y237975D01*
M02*
