M48
INCH
T50C0.038
T51C0.126
T52C0.157
%
T50
X060072Y020874
X061072Y020874
X062072Y020874
X063072Y020874
X062795Y018897
X061897Y032480
X061897Y030480
X061897Y028480
X059479Y033727
X059479Y032727
X059479Y031727
X001556Y030521
X062789Y036215
T51
X059842Y018897
X059837Y036215
X001556Y027568
T52
X007471Y036221
X007471Y018898
X054715Y036221
X054715Y018898
M30
